<svg xmlns="http://www.w3.org/2000/svg" height="511pt" version="1.1" viewBox="0 -17 511.99936 511" width="511pt">
<g id="surface1">
<path d="M 361.457031 43.839844 C 364.824219 43.988281 367.589844 44.054688 370.160156 44.054688 C 380.4375 44.054688 388.242188 42.890625 394.726562 40.378906 C 397.351562 39.359375 399.179688 38.308594 400.464844 37.089844 C 402.074219 35.574219 402.835938 33.730469 402.566406 32.050781 C 402.265625 30.089844 400.589844 28.140625 397.445312 26.089844 C 389.191406 20.71875 380.273438 19.492188 369.921875 18.074219 L 369.5625 18.023438 C 364.957031 17.386719 360.273438 17.0625 355.640625 17.0625 C 350.011719 17.0625 344.332031 17.539062 338.75 18.476562 C 333.015625 19.449219 327.464844 20.910156 322.25 22.816406 C 317.785156 24.453125 315.46875 26.3125 315.160156 28.578125 C 315.007812 29.917969 315.660156 31.425781 316.929688 32.695312 C 318.246094 34.039062 320.078125 35.042969 321.523438 35.765625 C 333.578125 41.839844 347.839844 43.238281 361.457031 43.839844 Z M 361.457031 43.839844 " style=" stroke:none;fill-rule:nonzero;fill:rgb(84.705882%,87.058824%,92.54902%);fill-opacity:1;" />
<path d="M 114.964844 81.480469 C 106.707031 76.105469 97.789062 74.882812 87.445312 73.464844 L 87.078125 73.414062 C 82.476562 72.777344 77.789062 72.453125 73.148438 72.453125 C 67.53125 72.453125 61.851562 72.929688 56.265625 73.867188 C 50.515625 74.84375 44.964844 76.300781 39.765625 78.207031 C 35.289062 79.84375 32.972656 81.714844 32.679688 83.957031 C 32.523438 85.285156 33.171875 86.792969 34.445312 88.085938 C 35.761719 89.425781 37.59375 90.429688 39.039062 91.152344 C 51.058594 97.210938 65.335938 98.613281 78.976562 99.230469 C 82.34375 99.378906 85.113281 99.445312 87.679688 99.445312 C 97.957031 99.445312 105.761719 98.28125 112.246094 95.769531 C 114.871094 94.75 116.699219 93.703125 117.984375 92.480469 C 119.589844 90.964844 120.355469 89.121094 120.082031 87.441406 C 119.785156 85.480469 118.113281 83.53125 114.964844 81.480469 Z M 114.964844 81.480469 " style=" stroke:none;fill-rule:nonzero;fill:rgb(84.705882%,87.058824%,92.54902%);fill-opacity:1;" />
<path d="M 484.433594 327.726562 C 476.417969 296.585938 459.3125 268.964844 442.773438 242.25 L 442.714844 242.15625 C 441.542969 240.28125 440.152344 238.058594 438.707031 235.832031 L 436.332031 232.171875 L 433.765625 235.699219 C 430.871094 239.671875 425.371094 242.171875 418.675781 242.558594 C 417.882812 242.605469 417.074219 242.625 416.195312 242.625 C 413.753906 242.625 411.261719 242.449219 408.820312 242.273438 C 406.503906 242.101562 403.875 241.90625 401.273438 241.90625 C 400.820312 241.90625 400.367188 241.914062 399.914062 241.925781 C 388.554688 242.253906 378.4375 246.636719 367.722656 251.28125 C 359.984375 254.648438 351.976562 258.128906 343.625 259.726562 C 340.210938 260.382812 336.679688 260.714844 333.128906 260.714844 C 321.9375 260.714844 310.707031 257.332031 301.515625 251.1875 C 289.988281 243.488281 282.800781 233.542969 279.546875 220.78125 L 277.933594 214.460938 L 272.453125 222.265625 C 271.542969 223.582031 270.621094 224.898438 269.6875 226.195312 C 258.992188 241.136719 246.738281 259.007812 236.980469 278.277344 C 223.144531 305.625 216.398438 331.980469 216.929688 356.617188 C 217.554688 385.949219 228.933594 412.695312 248.140625 429.992188 C 274.605469 453.824219 312.582031 458.242188 346.242188 459.421875 C 352.769531 459.648438 358.179688 459.757812 363.277344 459.757812 C 383.042969 459.757812 398.988281 458.046875 413.457031 454.378906 C 437.550781 448.265625 457.765625 435.882812 470.382812 419.515625 C 488.070312 396.582031 493.324219 362.269531 484.433594 327.726562 Z M 484.433594 327.726562 " style=" stroke:none;fill-rule:nonzero;fill:rgb(15.686275%,56.078431%,78.823529%);fill-opacity:1;" />
<path d="M 436.328125 232.273438 C 428.628906 221.003906 417.742188 207.636719 401.726562 204.257812 C 399.027344 203.6875 396.285156 203.410156 393.34375 203.410156 C 384.640625 203.410156 376.140625 205.871094 367.105469 208.480469 C 358.652344 210.925781 349.914062 213.457031 341.367188 213.457031 C 338.507812 213.457031 335.863281 213.183594 333.277344 212.621094 C 328.40625 211.566406 323.789062 209.4375 319.324219 207.378906 C 315.804688 205.761719 311.820312 203.929688 307.800781 202.730469 C 304.980469 201.882812 302.25 201.453125 299.691406 201.453125 C 289.339844 201.453125 282.816406 208.203125 277.304688 215.496094 L 276.054688 217.148438 L 277.066406 218.753906 C 280.132812 233.390625 287.558594 244.21875 300.421875 252.820312 C 309.929688 259.175781 321.542969 262.675781 333.117188 262.675781 C 336.777344 262.675781 340.433594 262.332031 343.992188 261.652344 C 352.476562 260.023438 360.578125 256.519531 368.414062 253.128906 L 368.515625 253.085938 C 378.570312 248.714844 388.964844 244.199219 399.96875 243.882812 C 400.378906 243.871094 400.789062 243.867188 401.199219 243.867188 C 403.664062 243.867188 406.175781 244.046875 408.605469 244.222656 L 408.820312 241.230469 L 408.722656 244.230469 C 411.296875 244.414062 413.726562 244.589844 416.214844 244.589844 C 417.113281 244.589844 417.953125 244.566406 418.785156 244.519531 C 422.410156 244.304688 431.253906 243.074219 435.734375 236.304688 L 437.984375 234.699219 Z M 436.328125 232.273438 " style=" stroke:none;fill-rule:nonzero;fill:rgb(35.686275%,81.568627%,98.823529%);fill-opacity:1;" />
<path d="M 360.304688 139.292969 C 361.082031 139.40625 361.882812 139.464844 362.6875 139.464844 C 366.363281 139.464844 370.171875 138.261719 373.421875 136.085938 C 377.621094 133.261719 380.613281 129 381.632812 124.382812 C 382.714844 119.414062 381.402344 114.105469 378.203125 110.523438 C 375.53125 107.542969 371.972656 105.96875 367.910156 105.96875 C 367.648438 105.96875 367.382812 105.976562 367.121094 105.988281 C 361.136719 106.261719 354.820312 109.757812 351.027344 114.894531 C 347.296875 119.945312 346.550781 126.691406 349.167969 131.6875 C 351.277344 135.683594 355.546875 138.597656 360.304688 139.292969 Z M 360.304688 139.292969 " style=" stroke:none;fill-rule:nonzero;fill:rgb(35.686275%,81.568627%,98.823529%);fill-opacity:1;" />
<path d="M 312.253906 185.699219 C 315.035156 190.996094 320.683594 194.855469 327 195.773438 C 328.027344 195.921875 329.082031 195.996094 330.144531 195.996094 C 335.042969 195.996094 340.109375 194.398438 344.402344 191.503906 C 349.980469 187.761719 353.953125 182.101562 355.300781 175.972656 C 356.730469 169.394531 354.992188 162.371094 350.765625 157.632812 C 346.316406 152.660156 340.875 151.613281 337.097656 151.613281 C 336.734375 151.613281 336.378906 151.617188 336.121094 151.636719 C 328.285156 151.996094 319.6875 156.757812 314.726562 163.480469 C 309.777344 170.175781 308.785156 179.105469 312.253906 185.699219 Z M 312.253906 185.699219 " style=" stroke:none;fill-rule:nonzero;fill:rgb(35.686275%,81.568627%,98.823529%);fill-opacity:1;" />
<path d="M 504.136719 335.402344 C 496.152344 301.769531 477.449219 271.355469 460.539062 245.488281 C 458.882812 242.964844 457.21875 240.441406 455.550781 237.917969 L 453 234.050781 C 437.21875 210.195312 420.898438 185.53125 410.042969 158.546875 C 396.195312 124.132812 393.226562 87.203125 402.101562 59.757812 L 403.632812 55.023438 L 398.734375 55.878906 C 391.589844 57.128906 383.582031 57.734375 374.25 57.734375 C 370.859375 57.734375 367.199219 57.660156 362.734375 57.496094 C 346.296875 56.875 327.175781 55.382812 310.007812 49.050781 L 305.511719 47.390625 L 305.984375 52.160156 C 308.714844 79.792969 312.453125 117.632812 301.402344 150.835938 C 294.800781 170.636719 283.117188 188.632812 272.679688 203.945312 C 268.742188 209.71875 264.527344 215.773438 261.136719 220.640625 C 240.910156 249.683594 219.992188 279.71875 208.566406 313.597656 C 201.492188 334.578125 199.015625 356.476562 201.410156 376.933594 C 204.035156 399.347656 212.582031 418.808594 226.121094 433.21875 C 254.089844 462.984375 298.019531 468.808594 337 471.933594 C 350.011719 472.976562 363.960938 473.9375 377.800781 473.9375 C 393.0625 473.9375 406.433594 472.773438 418.671875 470.378906 C 448.402344 464.578125 473.09375 450.574219 488.199219 430.945312 C 506.675781 406.917969 512.636719 371.203125 504.136719 335.402344 Z M 352.605469 116.054688 C 355.945312 111.523438 361.949219 108.1875 367.207031 107.941406 C 367.433594 107.929688 367.660156 107.925781 367.882812 107.925781 C 371.449219 107.925781 374.429688 109.238281 376.742188 111.832031 C 379.527344 114.953125 380.664062 119.601562 379.707031 123.964844 C 378.808594 128.085938 376.121094 131.910156 372.328125 134.453125 C 369.394531 136.417969 365.964844 137.503906 362.667969 137.503906 C 361.972656 137.503906 361.273438 137.453125 360.597656 137.355469 C 356.425781 136.742188 352.714844 134.21875 350.90625 130.769531 C 348.628906 126.433594 349.308594 120.519531 352.605469 116.054688 Z M 316.304688 164.644531 C 320.925781 158.375 328.925781 153.933594 336.210938 153.589844 C 336.523438 153.578125 336.835938 153.570312 337.140625 153.570312 C 342.03125 153.570312 346.121094 155.375 349.300781 158.929688 C 353.125 163.21875 354.6875 169.589844 353.378906 175.566406 C 352.152344 181.183594 348.480469 186.402344 343.308594 189.882812 C 339.324219 192.558594 334.644531 194.035156 330.128906 194.035156 C 329.1875 194.035156 328.222656 193.964844 327.28125 193.835938 C 321.582031 193.003906 316.484375 189.535156 313.984375 184.789062 C 310.867188 178.851562 311.796875 170.753906 316.304688 164.644531 Z M 468.832031 418.324219 C 456.484375 434.339844 436.644531 446.46875 412.972656 452.476562 C 398.664062 456.105469 382.875 457.792969 363.28125 457.792969 C 358.308594 457.792969 352.917969 457.6875 346.316406 457.464844 C 313.003906 456.296875 275.445312 451.945312 249.457031 428.546875 C 230.644531 411.601562 219.5 385.371094 218.890625 356.582031 C 218.371094 332.277344 225.046875 306.230469 238.738281 279.167969 C 248.492188 259.898438 260.667969 242.15625 271.289062 227.339844 C 271.984375 226.371094 272.664062 225.398438 273.347656 224.421875 L 274.074219 223.386719 C 281.222656 213.109375 287.976562 203.402344 299.617188 203.402344 C 301.984375 203.402344 304.546875 203.808594 307.234375 204.609375 C 311.175781 205.785156 315.066406 207.578125 318.5 209.160156 L 318.613281 209.214844 C 323.363281 211.394531 327.851562 213.457031 332.867188 214.546875 C 335.625 215.144531 338.429688 215.433594 341.433594 215.433594 C 350.140625 215.433594 358.648438 212.972656 367.65625 210.367188 C 376.101562 207.917969 384.835938 205.386719 393.402344 205.386719 C 396.195312 205.386719 398.785156 205.644531 401.324219 206.179688 C 419.152344 209.9375 430.722656 226.53125 441.050781 243.207031 C 457.539062 269.808594 474.585938 297.3125 482.535156 328.214844 C 491.277344 362.183594 486.152344 395.867188 468.832031 418.324219 Z M 468.832031 418.324219 " style=" stroke:none;fill-rule:nonzero;fill:rgb(100%,100%,100%);fill-opacity:1;" />
<path d="M 286.613281 27.753906 C 286.265625 30.464844 287.332031 33.507812 289.53125 36.09375 C 291.664062 38.609375 294.554688 40.449219 297.109375 41.917969 C 316.875 53.234375 340.347656 55.578125 362.777344 56.421875 C 367.0625 56.582031 370.808594 56.660156 374.226562 56.660156 C 385.785156 56.660156 402.867188 55.875 417.714844 49.058594 C 422.082031 47.042969 425.144531 44.980469 427.351562 42.570312 C 430.101562 39.5625 431.488281 35.761719 431.054688 32.398438 C 430.554688 28.539062 427.789062 24.769531 422.59375 20.878906 C 409.066406 10.773438 393.660156 8.542969 377.378906 6.179688 L 376.769531 6.085938 C 369.859375 5.082031 362.8125 4.574219 355.820312 4.574219 C 345.859375 4.574219 335.820312 5.609375 325.976562 7.65625 C 316.539062 9.625 307.351562 12.53125 298.664062 16.300781 C 290.988281 19.640625 287.160156 23.28125 286.613281 27.753906 Z M 314.105469 28.394531 C 314.605469 24.457031 320.082031 22.46875 321.890625 21.8125 C 327.140625 19.882812 332.757812 18.410156 338.578125 17.421875 C 344.191406 16.476562 349.933594 16 355.640625 16 C 360.316406 16 365.046875 16.320312 369.699219 16.957031 L 370.136719 17.015625 C 380.136719 18.394531 389.585938 19.699219 398.023438 25.199219 C 400.1875 26.609375 403.121094 28.832031 403.617188 31.851562 C 403.953125 33.898438 403.074219 36.089844 401.203125 37.863281 C 399.351562 39.617188 396.839844 40.710938 395.109375 41.378906 C 388.492188 43.933594 380.574219 45.125 370.191406 45.125 C 367.570312 45.125 364.78125 45.058594 361.414062 44.910156 C 347.667969 44.292969 333.261719 42.875 321.046875 36.730469 C 319.339844 35.863281 317.5625 34.863281 316.164062 33.449219 C 314.644531 31.90625 313.890625 30.0625 314.105469 28.394531 Z M 314.105469 28.394531 " style=" stroke:none;fill-rule:nonzero;fill:rgb(100%,100%,100%);fill-opacity:1;" />
<path d="M 80.285156 111.8125 C 84.574219 111.972656 88.324219 112.050781 91.746094 112.050781 C 103.304688 112.050781 120.390625 111.265625 135.238281 104.449219 C 139.605469 102.433594 142.667969 100.371094 144.871094 97.960938 C 147.625 94.957031 149.007812 91.15625 148.574219 87.789062 C 148.078125 83.929688 145.308594 80.160156 140.113281 76.269531 C 126.589844 66.167969 111.1875 63.933594 94.898438 61.570312 L 94.289062 61.476562 C 87.351562 60.46875 80.300781 59.960938 73.328125 59.960938 C 63.355469 59.960938 53.320312 61 43.496094 63.046875 C 34.039062 65.019531 24.847656 67.925781 16.183594 71.695312 C 8.507812 75.03125 4.679688 78.675781 4.132812 83.144531 C 3.789062 85.855469 4.851562 88.898438 7.050781 91.488281 C 9.207031 94.023438 12.09375 95.847656 14.628906 97.296875 C 34.390625 108.625 57.863281 110.96875 80.285156 111.8125 Z M 31.625 83.789062 C 32.132812 79.84375 37.605469 77.855469 39.414062 77.199219 C 44.664062 75.273438 50.277344 73.796875 56.097656 72.8125 C 61.710938 71.867188 67.453125 71.386719 73.160156 71.386719 C 77.835938 71.386719 82.566406 71.710938 87.21875 72.34375 L 87.660156 72.40625 C 97.660156 73.785156 107.109375 75.089844 115.550781 80.59375 C 117.710938 81.992188 120.640625 84.203125 121.140625 87.238281 C 121.476562 89.289062 120.597656 91.476562 118.722656 93.25 C 116.875 95.003906 114.363281 96.097656 112.628906 96.765625 C 106.023438 99.324219 98.105469 100.515625 87.710938 100.515625 C 85.082031 100.515625 82.292969 100.445312 78.933594 100.296875 C 65.1875 99.683594 50.785156 98.265625 38.570312 92.121094 C 36.859375 91.25 35.082031 90.25 33.6875 88.839844 C 32.15625 87.289062 31.40625 85.453125 31.625 83.789062 Z M 31.625 83.789062 " style=" stroke:none;fill-rule:nonzero;fill:rgb(100%,100%,100%);fill-opacity:1;" />
<path d="M 73.40625 472.574219 C 90.34375 472.574219 106.964844 465.101562 117.863281 452.582031 C 135.953125 431.800781 137.164062 402.433594 136.847656 371.632812 L 134.164062 106.226562 L 130.195312 107.648438 C 119.785156 111.382812 107.574219 113.125 91.765625 113.125 C 88.300781 113.125 84.535156 113.042969 80.25 112.875 C 62.574219 112.210938 42.078125 110.53125 24.074219 103.082031 L 20.125 101.449219 L 19.929688 105.71875 C 15.664062 199.777344 13.527344 295.019531 13.585938 388.894531 C 13.609375 405.121094 13.632812 423.511719 21.230469 439.425781 C 29.476562 456.6875 47.046875 469.503906 65.992188 472.078125 C 68.421875 472.40625 70.914062 472.574219 73.40625 472.574219 Z M 82.566406 147.253906 C 83.335938 142.863281 86.261719 138.886719 90.203125 136.875 C 91.839844 136.039062 93.53125 135.613281 95.230469 135.613281 C 96.785156 135.613281 98.3125 135.972656 99.765625 136.679688 C 103.527344 138.511719 106.171875 142.519531 106.847656 147.398438 C 107.558594 152.511719 105.960938 157.507812 102.671875 160.4375 C 100.679688 162.214844 97.949219 163.195312 94.988281 163.195312 C 92.277344 163.195312 89.660156 162.347656 87.613281 160.808594 C 83.683594 157.851562 81.65625 152.40625 82.566406 147.253906 Z M 41.492188 190.90625 C 42.421875 185.628906 45.945312 180.847656 50.6875 178.425781 C 52.652344 177.417969 54.6875 176.90625 56.738281 176.90625 C 58.621094 176.90625 60.464844 177.339844 62.21875 178.191406 C 66.746094 180.394531 69.933594 185.210938 70.746094 191.074219 C 71.59375 197.222656 69.664062 203.234375 65.714844 206.75 C 63.304688 208.894531 60.015625 210.074219 56.457031 210.074219 C 53.1875 210.074219 50.035156 209.050781 47.570312 207.195312 C 42.839844 203.636719 40.394531 197.089844 41.492188 190.90625 Z M 33.691406 436.386719 C 26.804688 422.167969 26.871094 405.863281 26.929688 391.476562 L 27.328125 289.867188 C 27.347656 285.921875 27.25 281.855469 27.160156 277.925781 L 27.125 276.578125 C 26.871094 266.34375 26.605469 255.757812 27.972656 245.65625 C 29.199219 236.542969 31.722656 230.347656 35.261719 227.742188 C 36.566406 226.789062 37.964844 226.324219 39.542969 226.324219 C 40.027344 226.324219 40.539062 226.371094 41.058594 226.460938 C 44.050781 226.976562 46.308594 228.714844 48.730469 230.585938 C 51.339844 232.59375 54.042969 234.671875 57.902344 235.269531 C 58.839844 235.414062 59.816406 235.484375 60.800781 235.484375 C 68.273438 235.484375 75.414062 231.363281 80.132812 228.261719 L 81.101562 227.628906 C 87.285156 223.546875 94.289062 218.921875 101.925781 218.921875 C 102.507812 218.921875 103.097656 218.949219 103.671875 219 C 110.351562 219.625 116.609375 224.222656 119.617188 230.714844 C 122.386719 236.691406 122.472656 243.574219 122.546875 249.707031 L 123.730469 355.277344 C 123.917969 371.9375 124.113281 389.164062 122.265625 406.070312 C 121.058594 417.15625 118.597656 431.382812 110.238281 443.089844 C 101.664062 455.097656 87.667969 462.554688 73.710938 462.554688 L 73.386719 462.554688 C 54.648438 462.394531 39.949219 449.296875 33.691406 436.386719 Z M 33.691406 436.386719 " style=" stroke:none;fill-rule:nonzero;fill:rgb(100%,100%,100%);fill-opacity:1;" />
<path d="M 122.734375 244.230469 L 124.367188 243.335938 L 124.199219 241.386719 C 123.804688 236.816406 122.917969 233.160156 121.402344 229.894531 C 118.101562 222.777344 111.214844 217.734375 103.84375 217.046875 C 103.207031 216.988281 102.554688 216.960938 101.910156 216.960938 C 93.714844 216.960938 86.441406 221.757812 80.027344 225.992188 L 79.0625 226.628906 C 74.550781 229.589844 67.753906 233.523438 60.8125 233.523438 C 59.921875 233.523438 59.042969 233.460938 58.191406 233.328125 C 54.84375 232.820312 52.339844 230.894531 49.882812 229.003906 C 47.410156 227.097656 44.859375 225.125 41.386719 224.527344 C 40.765625 224.421875 40.148438 224.367188 39.554688 224.367188 C 37.574219 224.367188 35.742188 224.964844 34.097656 226.160156 C 30.800781 228.589844 28.375 233.394531 26.882812 240.433594 L 26.804688 240.800781 L 26.820312 241.175781 C 27.035156 246.453125 29.308594 248.976562 33.304688 252.980469 C 36.621094 256.3125 41.035156 259.054688 46.796875 261.367188 C 54.796875 264.589844 63.664062 266.292969 72.441406 266.292969 C 77.554688 266.292969 82.632812 265.726562 87.53125 264.609375 C 100.953125 261.566406 113.460938 254.320312 122.734375 244.230469 Z M 122.734375 244.230469 " style=" stroke:none;fill-rule:nonzero;fill:rgb(79.607843%,89.803922%,50.196078%);fill-opacity:1;" />
<path d="M 100.628906 134.917969 C 98.914062 134.082031 97.097656 133.65625 95.238281 133.65625 C 93.25 133.65625 91.257812 134.148438 89.304688 135.132812 C 84.898438 137.382812 81.492188 142.007812 80.625 146.914062 C 79.59375 152.769531 81.929688 158.984375 86.433594 162.371094 C 88.8125 164.160156 91.851562 165.144531 94.996094 165.144531 C 98.433594 165.144531 101.621094 163.996094 103.976562 161.90625 C 107.742188 158.546875 109.585938 152.882812 108.789062 147.121094 C 108.023438 141.597656 104.96875 137.035156 100.628906 134.917969 Z M 100.628906 134.917969 " style=" stroke:none;fill-rule:nonzero;fill:rgb(79.607843%,89.803922%,50.196078%);fill-opacity:1;" />
<path d="M 46.394531 208.761719 C 49.183594 210.863281 52.757812 212.019531 56.460938 212.019531 C 60.511719 212.019531 64.257812 210.667969 67.011719 208.214844 C 71.453125 204.265625 73.625 197.59375 72.679688 190.804688 C 71.785156 184.285156 68.1875 178.910156 63.082031 176.441406 C 61.0625 175.449219 58.929688 174.945312 56.75 174.945312 C 54.386719 174.945312 52.042969 175.53125 49.785156 176.683594 C 44.589844 179.335938 40.578125 184.785156 39.5625 190.558594 C 38.339844 197.46875 41.089844 204.785156 46.394531 208.761719 Z M 46.394531 208.761719 " style=" stroke:none;fill-rule:nonzero;fill:rgb(79.607843%,89.803922%,50.196078%);fill-opacity:1;" />
<path d="M 124.507812 249.679688 L 124.488281 248.269531 L 124.382812 239.914062 L 119.355469 244.917969 C 110.566406 253.660156 99.113281 259.976562 87.105469 262.699219 C 82.367188 263.777344 77.433594 264.324219 72.453125 264.324219 C 63.921875 264.324219 55.304688 262.671875 47.53125 259.550781 C 42.019531 257.335938 37.824219 254.730469 34.691406 251.59375 C 33.191406 250.09375 31.96875 248.839844 31 247.539062 L 26.367188 241.289062 L 25.605469 249.03125 C 24.710938 258.136719 24.9375 267.5 25.160156 276.550781 L 25.179688 277.296875 C 25.28125 281.4375 25.390625 285.71875 25.371094 289.851562 L 24.972656 391.472656 C 24.910156 406.070312 24.839844 422.613281 31.929688 437.242188 C 38.449219 450.703125 53.789062 464.351562 73.359375 464.515625 L 73.792969 464.515625 C 88.097656 464.515625 103.035156 456.554688 111.84375 444.226562 C 120.398438 432.257812 122.902344 418.328125 124.226562 406.28125 C 126.078125 389.253906 125.882812 371.96875 125.695312 355.25 Z M 124.507812 249.679688 " style=" stroke:none;fill-rule:nonzero;fill:rgb(58.039216%,77.647059%,40.784314%);fill-opacity:1;" />
<path d="M 142.546875 73.015625 C 128.191406 62.289062 112.289062 59.980469 95.449219 57.535156 L 94.875 57.449219 C 77.492188 54.925781 59.929688 55.464844 42.664062 59.066406 C 32.933594 61.09375 23.476562 64.085938 14.566406 67.960938 C 11.253906 69.398438 1.179688 73.773438 0.0898438 82.664062 C -0.382812 86.5 1.027344 90.675781 3.957031 94.125 C 6.511719 97.132812 9.765625 99.203125 12.609375 100.832031 C 13.722656 101.472656 14.855469 102.074219 15.992188 102.660156 C 11.636719 197.566406 9.457031 293.828125 9.523438 388.808594 C 9.535156 404.667969 9.550781 424.40625 17.5625 441.179688 C 26.378906 459.640625 45.175781 473.355469 65.449219 476.113281 C 68.0625 476.46875 70.699219 476.644531 73.339844 476.644531 C 91.195312 476.644531 109.234375 468.699219 120.933594 455.253906 C 139.953125 433.410156 141.238281 403.214844 140.917969 371.589844 L 138.273438 109.847656 C 138.261719 109.089844 138.011719 108.394531 137.601562 107.824219 C 142.128906 105.675781 145.417969 103.402344 147.886719 100.695312 C 151.484375 96.75 153.207031 91.851562 152.609375 87.261719 C 151.957031 82.246094 148.664062 77.585938 142.546875 73.015625 Z M 115.601562 450.613281 C 103.691406 464.296875 84.386719 471.554688 66.402344 469.109375 C 48.429688 466.660156 31.761719 454.503906 23.941406 438.132812 C 16.617188 422.800781 16.605469 404.738281 16.59375 388.804688 C 16.527344 294.886719 18.667969 199.722656 22.929688 105.855469 C 40.957031 113.316406 60.933594 115.152344 80.136719 115.878906 C 83.984375 116.023438 87.871094 116.121094 91.765625 116.121094 C 105.199219 116.121094 118.75 114.941406 131.207031 110.46875 L 133.851562 371.660156 C 134.15625 401.867188 132.988281 430.636719 115.601562 450.613281 Z M 142.664062 95.929688 C 140.734375 98.046875 137.972656 99.886719 133.976562 101.722656 C 117.855469 109.125 98.703125 109.507812 80.40625 108.8125 C 58.355469 107.980469 35.304688 105.695312 16.125 94.699219 C 13.808594 93.375 11.195312 91.722656 9.34375 89.546875 C 7.691406 87.601562 6.875 85.40625 7.105469 83.523438 C 7.507812 80.242188 10.867188 77.273438 17.382812 74.445312 C 25.855469 70.761719 34.847656 67.917969 44.109375 65.988281 C 60.558594 62.558594 77.296875 62.039062 93.859375 64.445312 L 94.433594 64.53125 C 110.359375 66.84375 125.402344 69.027344 138.316406 78.679688 C 142.824219 82.046875 145.207031 85.152344 145.597656 88.171875 C 145.921875 90.660156 144.824219 93.558594 142.664062 95.929688 Z M 142.664062 95.929688 " style=" stroke:none;fill-rule:nonzero;fill:rgb(0%,0%,0%);fill-opacity:1;" />
<path d="M 117.183594 78.070312 C 108.160156 72.195312 98.363281 70.851562 87.988281 69.425781 L 87.632812 69.378906 C 76.945312 67.914062 66.167969 68.074219 55.597656 69.855469 C 49.625 70.863281 43.832031 72.386719 38.375 74.378906 C 36.152344 75.195312 29.382812 77.664062 28.648438 83.398438 C 28.316406 85.984375 29.375 88.734375 31.554688 90.945312 C 33.269531 92.6875 35.378906 93.867188 37.210938 94.789062 C 49.949219 101.203125 64.726562 102.667969 78.800781 103.292969 C 81.746094 103.421875 84.726562 103.515625 87.714844 103.515625 C 96.664062 103.515625 105.644531 102.683594 113.714844 99.5625 C 115.683594 98.800781 118.558594 97.542969 120.789062 95.425781 C 123.394531 92.960938 124.597656 89.800781 124.097656 86.753906 C 123.410156 82.558594 119.824219 79.789062 117.183594 78.070312 Z M 115.929688 90.292969 C 114.917969 91.25 113.402344 92.101562 111.164062 92.96875 C 101.617188 96.664062 90.121094 96.71875 79.113281 96.230469 C 65.828125 95.640625 51.941406 94.292969 40.390625 88.476562 C 39.148438 87.851562 37.589844 87 36.589844 85.984375 C 35.84375 85.230469 35.625 84.566406 35.660156 84.304688 C 35.679688 84.152344 35.988281 82.78125 40.800781 81.019531 C 45.855469 79.175781 51.226562 77.765625 56.773438 76.828125 C 62.191406 75.914062 67.664062 75.457031 73.15625 75.457031 C 77.660156 75.457031 82.175781 75.765625 86.671875 76.382812 L 87.03125 76.433594 C 97.011719 77.800781 105.632812 78.984375 113.328125 83.996094 C 116.402344 86 117.027344 87.300781 117.125 87.898438 C 117.234375 88.574219 116.777344 89.492188 115.929688 90.292969 Z M 115.929688 90.292969 " style=" stroke:none;fill-rule:nonzero;fill:rgb(0%,0%,0%);fill-opacity:1;" />
<path d="M 396.195312 44.171875 C 398.160156 43.414062 401.035156 42.15625 403.269531 40.039062 C 405.871094 37.574219 407.078125 34.410156 406.578125 31.367188 C 405.890625 27.171875 402.300781 24.398438 399.664062 22.679688 C 390.640625 16.804688 380.839844 15.460938 370.46875 14.039062 L 370.113281 13.988281 C 359.429688 12.523438 348.648438 12.6875 338.074219 14.46875 C 332.105469 15.476562 326.3125 16.996094 320.851562 18.992188 C 318.628906 19.804688 311.863281 22.277344 311.125 28.015625 C 310.792969 30.597656 311.851562 33.347656 314.03125 35.558594 C 315.75 37.300781 317.859375 38.476562 319.691406 39.402344 C 332.429688 45.816406 347.207031 47.277344 361.28125 47.902344 C 364.222656 48.035156 367.207031 48.125 370.191406 48.125 C 379.144531 48.125 388.125 47.296875 396.195312 44.171875 Z M 361.59375 40.839844 C 348.304688 40.25 334.417969 38.902344 322.871094 33.085938 C 321.625 32.460938 320.070312 31.613281 319.066406 30.59375 C 318.324219 29.839844 318.105469 29.175781 318.136719 28.914062 C 318.15625 28.765625 318.464844 27.390625 323.28125 25.632812 C 328.332031 23.785156 333.707031 22.375 339.25 21.4375 C 344.667969 20.523438 350.144531 20.070312 355.636719 20.070312 C 360.140625 20.070312 364.65625 20.375 369.152344 20.992188 L 369.507812 21.042969 C 379.492188 22.410156 388.109375 23.59375 395.804688 28.605469 C 398.878906 30.609375 399.503906 31.910156 399.601562 32.511719 C 399.714844 33.183594 399.257812 34.101562 398.410156 34.90625 C 397.398438 35.867188 395.882812 36.714844 393.644531 37.582031 C 384.097656 41.273438 372.597656 41.328125 361.59375 40.839844 Z M 361.59375 40.839844 " style=" stroke:none;fill-rule:nonzero;fill:rgb(0%,0%,0%);fill-opacity:1;" />
<path d="M 508.09375 334.457031 C 499.953125 300.15625 481.035156 269.402344 463.941406 243.265625 C 461.441406 239.445312 458.914062 235.628906 456.390625 231.808594 C 440.714844 208.097656 424.5 183.578125 413.816406 157.023438 C 399.601562 121.703125 397.113281 84.53125 407.15625 57.589844 C 407.222656 57.417969 407.257812 57.242188 407.292969 57.066406 C 411.4375 55.960938 415.492188 54.554688 419.40625 52.757812 C 424.292969 50.511719 427.773438 48.144531 430.367188 45.304688 C 433.964844 41.359375 435.683594 36.464844 435.089844 31.871094 C 434.4375 26.855469 431.144531 22.195312 425.027344 17.625 C 410.671875 6.898438 394.765625 4.589844 377.929688 2.144531 L 377.351562 2.058594 C 359.96875 -0.464844 342.402344 0.078125 325.140625 3.675781 C 315.414062 5.703125 305.957031 8.695312 297.042969 12.570312 C 293.730469 14.007812 283.65625 18.386719 282.566406 27.269531 C 282.097656 31.109375 283.507812 35.289062 286.433594 38.730469 C 288.988281 41.738281 292.242188 43.8125 295.085938 45.441406 C 297.207031 46.65625 299.371094 47.75 301.558594 48.773438 C 304.746094 80.796875 308.34375 117.082031 297.535156 149.546875 C 291.113281 168.851562 279.601562 186.5625 269.320312 201.648438 C 265.527344 207.210938 261.597656 212.855469 257.796875 218.316406 C 237.398438 247.609375 216.304688 277.898438 204.710938 312.292969 C 197.441406 333.855469 194.902344 356.371094 197.367188 377.40625 C 200.097656 400.691406 209.015625 420.953125 223.160156 436.007812 C 236.113281 449.792969 253.285156 459.671875 275.648438 466.203125 C 295.976562 472.144531 317.90625 474.480469 336.675781 475.988281 C 350.074219 477.058594 363.894531 478.007812 377.824219 478.007812 C 391.695312 478.007812 405.671875 477.066406 419.449219 474.375 C 450.15625 468.378906 475.714844 453.832031 491.417969 433.421875 C 510.644531 408.445312 516.875 371.445312 508.09375 334.457031 Z M 291.824219 34.15625 C 290.167969 32.210938 289.351562 30.015625 289.585938 28.132812 C 289.988281 24.851562 293.347656 21.882812 299.859375 19.054688 C 308.335938 15.371094 317.328125 12.527344 326.585938 10.597656 C 336.261719 8.578125 346.035156 7.570312 355.816406 7.570312 C 362.664062 7.570312 369.515625 8.0625 376.335938 9.054688 L 376.914062 9.140625 C 392.839844 11.453125 407.878906 13.636719 420.796875 23.285156 C 425.304688 26.65625 427.6875 29.761719 428.078125 32.78125 C 428.402344 35.269531 427.304688 38.167969 425.144531 40.539062 C 423.210938 42.65625 420.453125 44.496094 416.457031 46.328125 C 400.335938 53.734375 381.183594 54.117188 362.886719 53.421875 C 340.835938 52.589844 317.789062 50.304688 298.601562 39.308594 C 296.289062 37.984375 293.671875 36.332031 291.824219 34.15625 Z M 485.820312 429.113281 C 471.164062 448.160156 447.113281 461.769531 418.09375 467.4375 C 391.367188 472.660156 363.496094 471.046875 337.242188 468.941406 C 298.820312 465.863281 255.550781 460.148438 228.3125 431.167969 C 215.214844 417.226562 206.941406 398.351562 204.390625 376.585938 C 202.046875 356.582031 204.472656 335.132812 211.410156 314.554688 C 222.683594 281.117188 243.484375 251.246094 263.597656 222.359375 C 267.410156 216.886719 271.347656 211.226562 275.160156 205.636719 C 285.714844 190.15625 297.53125 171.949219 304.246094 151.78125 C 315.09375 119.1875 312.113281 83.644531 308.972656 51.863281 C 326.046875 58.160156 344.671875 59.8125 362.617188 60.492188 C 366.464844 60.636719 370.351562 60.734375 374.246094 60.734375 C 382.636719 60.734375 391.070312 60.269531 399.253906 58.835938 C 390.136719 87.007812 393.039062 124.328125 407.257812 159.667969 C 418.210938 186.882812 434.621094 211.703125 450.492188 235.710938 C 453.011719 239.519531 455.527344 243.324219 458.023438 247.136719 C 474.789062 272.773438 493.335938 302.902344 501.214844 336.09375 C 509.511719 371.027344 503.753906 405.804688 485.820312 429.113281 Z M 485.820312 429.113281 " style=" stroke:none;fill-rule:nonzero;fill:rgb(0%,0%,0%);fill-opacity:1;" />
<path d="M 125.546875 249.671875 C 125.472656 243.28125 125.390625 236.03125 122.34375 229.453125 C 118.890625 222.003906 111.671875 216.730469 103.949219 216.015625 C 94.589844 215.15625 86.542969 220.449219 79.453125 225.121094 L 78.492188 225.753906 C 73.390625 229.105469 65.761719 233.429688 58.347656 232.300781 C 55.253906 231.828125 52.957031 230.054688 50.527344 228.183594 C 47.953125 226.199219 45.292969 224.144531 41.566406 223.5 C 38.566406 222.980469 35.847656 223.59375 33.492188 225.320312 C 29.214844 228.460938 26.355469 235.164062 24.996094 245.253906 C 23.597656 255.601562 23.867188 266.320312 24.125 276.683594 C 24.234375 281.023438 24.34375 285.511719 24.328125 289.851562 L 23.929688 391.464844 C 23.871094 406.183594 23.804688 422.863281 30.992188 437.691406 C 37.648438 451.4375 53.335938 465.386719 73.359375 465.554688 C 73.476562 465.554688 73.59375 465.554688 73.710938 465.554688 C 88.628906 465.554688 103.53125 457.640625 112.683594 444.835938 C 121.433594 432.585938 123.996094 417.859375 125.25 406.398438 C 127.113281 389.351562 126.921875 372.011719 126.734375 355.242188 Z M 35.882812 228.578125 C 37.339844 227.511719 38.96875 227.152344 40.878906 227.480469 C 43.617188 227.957031 45.773438 229.621094 48.058594 231.382812 C 50.664062 233.390625 53.613281 235.664062 57.738281 236.292969 C 66.511719 237.636719 75.054688 232.847656 80.710938 229.128906 L 81.675781 228.496094 C 88.53125 223.972656 95.628906 219.300781 103.574219 220.039062 C 109.890625 220.621094 115.820312 224.984375 118.679688 231.148438 C 120.21875 234.472656 120.898438 238.03125 121.210938 241.644531 C 121.011719 241.75 120.824219 241.882812 120.664062 242.058594 C 111.746094 251.789062 99.746094 258.761719 86.871094 261.6875 C 74 264.613281 60.164062 263.511719 47.917969 258.585938 C 42.542969 256.425781 38.457031 253.898438 35.433594 250.867188 C 31.671875 247.09375 29.988281 245.214844 29.816406 241.050781 C 31.449219 233.351562 33.933594 230.007812 35.882812 228.578125 Z M 121.234375 405.960938 C 119.960938 417.613281 117.554688 431.066406 109.398438 442.488281 C 101.054688 454.160156 86.957031 461.660156 73.394531 461.515625 C 55.101562 461.359375 40.742188 448.554688 34.625 435.929688 C 27.847656 421.941406 27.914062 405.757812 27.96875 391.480469 L 28.371094 289.867188 C 28.386719 285.46875 28.273438 280.953125 28.164062 276.585938 C 27.941406 267.570312 27.710938 258.285156 28.59375 249.328125 C 29.707031 250.835938 31.074219 252.214844 32.574219 253.71875 C 35.992188 257.148438 40.519531 259.96875 46.410156 262.335938 C 54.648438 265.644531 63.554688 267.328125 72.457031 267.328125 C 77.609375 267.328125 82.757812 266.765625 87.769531 265.625 C 100.417969 262.75 112.265625 256.191406 121.46875 247.039062 C 121.484375 247.933594 121.496094 248.828125 121.503906 249.71875 L 122.691406 355.285156 C 122.878906 371.9375 123.074219 389.15625 121.234375 405.960938 Z M 121.234375 405.960938 " style=" stroke:none;fill-rule:nonzero;fill:rgb(0%,0%,0%);fill-opacity:1;" />
<path d="M 45.773438 209.597656 C 48.863281 211.921875 52.679688 213.074219 56.460938 213.074219 C 60.582031 213.074219 64.660156 211.703125 67.707031 208.992188 C 72.398438 204.816406 74.703125 197.792969 73.714844 190.664062 C 72.765625 183.804688 68.957031 178.136719 63.53125 175.496094 C 59.003906 173.296875 53.953125 173.386719 49.316406 175.757812 C 43.757812 178.589844 39.628906 184.195312 38.535156 190.378906 C 37.253906 197.65625 40.160156 205.378906 45.773438 209.597656 Z M 42.515625 191.082031 C 43.378906 186.195312 46.765625 181.589844 51.152344 179.355469 C 52.601562 178.613281 54.53125 177.941406 56.753906 177.941406 C 58.300781 177.941406 59.996094 178.269531 61.761719 179.128906 C 65.976562 181.179688 68.949219 185.699219 69.714844 191.214844 C 70.515625 197.027344 68.71875 202.683594 65.019531 205.976562 C 60.640625 209.875 53.09375 210.050781 48.199219 206.367188 C 43.773438 203.039062 41.488281 196.894531 42.515625 191.082031 Z M 42.515625 191.082031 " style=" stroke:none;fill-rule:nonzero;fill:rgb(0%,0%,0%);fill-opacity:1;" />
<path d="M 85.8125 163.203125 C 88.464844 165.203125 91.742188 166.191406 94.992188 166.191406 C 98.535156 166.191406 102.042969 165.011719 104.664062 162.679688 C 108.6875 159.09375 110.664062 153.082031 109.820312 146.980469 C 109.007812 141.109375 105.738281 136.25 101.078125 133.984375 C 97.175781 132.085938 92.832031 132.167969 88.839844 134.203125 C 84.078125 136.632812 80.539062 141.433594 79.605469 146.730469 C 78.507812 152.964844 81 159.585938 85.8125 163.203125 Z M 83.582031 147.433594 C 84.289062 143.421875 87.074219 139.640625 90.671875 137.804688 C 91.855469 137.199219 93.429688 136.652344 95.238281 136.652344 C 96.496094 136.652344 97.875 136.917969 99.3125 137.617188 C 102.757812 139.292969 105.191406 143 105.816406 147.535156 C 106.480469 152.320312 105.007812 156.964844 101.976562 159.664062 C 98.402344 162.847656 92.242188 162.988281 88.238281 159.976562 C 84.613281 157.25 82.742188 152.207031 83.582031 147.433594 Z M 83.582031 147.433594 " style=" stroke:none;fill-rule:nonzero;fill:rgb(0%,0%,0%);fill-opacity:1;" />
<path d="M 443.597656 241.621094 C 432.929688 224.398438 420.921875 207.246094 401.941406 203.242188 C 390.101562 200.742188 378.265625 204.167969 366.816406 207.480469 C 355.28125 210.820312 344.386719 213.972656 333.496094 211.609375 C 328.769531 210.582031 324.390625 208.570312 319.753906 206.433594 C 316.015625 204.71875 312.15625 202.941406 308.09375 201.730469 C 289.375 196.15625 280.34375 209.125 271.605469 221.671875 C 270.691406 222.980469 269.777344 224.296875 268.847656 225.589844 C 258.132812 240.546875 245.855469 258.449219 236.058594 277.808594 C 222.144531 305.3125 215.359375 331.835938 215.886719 356.640625 C 216.519531 386.253906 228.023438 413.273438 247.449219 430.769531 C 274.148438 454.816406 312.351562 459.273438 346.207031 460.460938 C 351.808594 460.660156 357.507812 460.796875 363.273438 460.796875 C 379.820312 460.796875 396.910156 459.648438 413.710938 455.382812 C 438.027344 449.21875 458.445312 436.707031 471.210938 420.15625 C 489.085938 396.972656 494.40625 362.320312 485.4375 327.464844 C 477.378906 296.136719 460.207031 268.421875 443.597656 241.621094 Z M 299.683594 204.457031 C 301.902344 204.457031 304.304688 204.820312 306.941406 205.601562 C 310.726562 206.730469 314.457031 208.445312 318.066406 210.105469 C 322.695312 212.234375 327.480469 214.4375 332.636719 215.558594 C 344.527344 218.140625 356.425781 214.695312 367.9375 211.363281 C 379.417969 208.042969 390.257812 204.902344 401.105469 207.195312 C 415.042969 210.136719 425.140625 221.21875 433.851562 233.96875 C 433.640625 234.117188 433.453125 234.304688 433.308594 234.535156 C 429.632812 240.289062 421.808594 241.335938 418.613281 241.519531 C 415.417969 241.703125 412.246094 241.476562 408.886719 241.234375 C 405.957031 241.019531 402.921875 240.800781 399.890625 240.886719 C 388.335938 241.214844 377.652344 245.847656 367.316406 250.328125 C 359.597656 253.675781 351.621094 257.136719 343.433594 258.703125 C 329.207031 261.425781 314.132812 258.371094 302.089844 250.324219 C 289.867188 242.15625 282.832031 231.863281 279.957031 217.921875 C 279.910156 217.695312 279.816406 217.488281 279.703125 217.300781 C 285.230469 209.988281 291.019531 204.457031 299.683594 204.457031 Z M 468.011719 417.6875 C 455.796875 433.523438 436.164062 445.523438 412.71875 451.46875 C 390.550781 457.09375 367.71875 457.171875 346.351562 456.425781 C 313.222656 455.261719 275.886719 450.949219 250.152344 427.769531 C 231.550781 411.015625 220.535156 385.058594 219.925781 356.554688 C 219.410156 332.417969 226.050781 306.539062 239.664062 279.632812 C 249.335938 260.515625 261.503906 242.777344 272.132812 227.945312 C 273.070312 226.632812 273.996094 225.304688 274.917969 223.980469 C 275.496094 223.148438 276.070312 222.332031 276.640625 221.523438 C 280.074219 235.019531 287.6875 245.5625 299.84375 253.683594 C 309.671875 260.25 321.371094 263.714844 333.125 263.714844 C 336.828125 263.714844 340.535156 263.371094 344.191406 262.671875 C 352.816406 261.023438 361.003906 257.46875 368.921875 254.035156 C 379.367188 249.507812 389.226562 245.230469 400.003906 244.925781 C 402.835938 244.847656 405.761719 245.058594 408.597656 245.261719 C 411.933594 245.503906 415.386719 245.753906 418.84375 245.554688 C 426.5 245.113281 432.753906 242.179688 436.183594 237.46875 C 437.539062 239.542969 438.863281 241.644531 440.164062 243.75 C 456.613281 270.292969 473.617188 297.742188 481.523438 328.472656 C 490.183594 362.132812 485.132812 395.484375 468.011719 417.6875 Z M 468.011719 417.6875 " style=" stroke:none;fill-rule:nonzero;fill:rgb(0%,0%,0%);fill-opacity:1;" />
<path d="M 326.847656 196.800781 C 327.925781 196.957031 329.023438 197.035156 330.128906 197.035156 C 335.203125 197.035156 340.46875 195.40625 344.980469 192.371094 C 350.785156 188.464844 354.914062 182.574219 356.3125 176.199219 C 357.820312 169.304688 355.992188 161.925781 351.539062 156.9375 C 347.578125 152.5 342.234375 150.300781 336.070312 150.59375 C 327.9375 150.976562 319.023438 155.90625 313.886719 162.867188 C 308.714844 169.875 307.6875 179.25 311.335938 186.1875 C 314.265625 191.769531 320.210938 195.835938 326.847656 196.800781 Z M 317.140625 165.265625 C 321.589844 159.230469 329.277344 154.957031 336.257812 154.628906 C 336.53125 154.617188 336.808594 154.609375 337.097656 154.609375 C 340.445312 154.609375 344.890625 155.558594 348.527344 159.628906 C 352.132812 163.664062 353.601562 169.683594 352.363281 175.335938 C 351.191406 180.703125 347.675781 185.6875 342.722656 189.019531 C 338.054688 192.160156 332.488281 193.539062 327.429688 192.804688 C 322.046875 192.019531 317.25 188.765625 314.910156 184.308594 C 311.96875 178.710938 312.863281 171.058594 317.140625 165.265625 Z M 317.140625 165.265625 " style=" stroke:none;fill-rule:nonzero;fill:rgb(0%,0%,0%);fill-opacity:1;" />
<path d="M 360.160156 140.320312 C 360.988281 140.441406 361.828125 140.5 362.671875 140.5 C 366.546875 140.5 370.5625 139.257812 374.003906 136.945312 C 378.429688 133.96875 381.578125 129.472656 382.644531 124.605469 C 383.800781 119.320312 382.394531 113.660156 378.976562 109.835938 C 375.925781 106.417969 371.796875 104.726562 367.070312 104.945312 C 360.875 105.234375 354.09375 108.984375 350.1875 114.277344 C 346.226562 119.644531 345.445312 126.832031 348.246094 132.160156 C 350.503906 136.453125 355.066406 139.578125 360.160156 140.320312 Z M 353.4375 116.675781 C 356.660156 112.308594 362.214844 109.21875 367.257812 108.980469 C 370.796875 108.816406 373.71875 110.011719 375.964844 112.527344 C 378.535156 115.402344 379.582031 119.703125 378.695312 123.742188 C 377.851562 127.601562 375.320312 131.191406 371.75 133.59375 C 368.382812 135.855469 364.367188 136.851562 360.742188 136.324219 C 356.90625 135.765625 353.488281 133.449219 351.824219 130.28125 C 349.726562 126.292969 350.375 120.824219 353.4375 116.675781 Z M 353.4375 116.675781 " style=" stroke:none;fill-rule:nonzero;fill:rgb(0%,0%,0%);fill-opacity:1;" />
</g>
</svg>