<svg height="512" viewBox="0 0 60 61" width="512" xmlns="http://www.w3.org/2000/svg"><g id="025---Male-Zookeeper" fill="none"><g id="Icons" transform="translate(1 1)"><path id="Shape" d="m17 58h-17c.05-1.88 1.85-2.3 3.56-3.21 5-2.68 6.25-3.61 8.59-4.21.7968596 2.9215007 2.4938458 5.5177148 4.85 7.42z" fill="#009688"/><path id="Shape" d="m43.16 24.15s1.08-1.64 2.16-1.09.54 5.47.54 5.47c-.3684648 2.2843755-1.7309156 4.2877643-3.72 5.47h-26.28c-1.9818143-1.175746-3.3432549-3.1666699-3.72-5.44 0 0-.53-4.93.54-5.47s2.16 1.09 2.16 1.09z" fill="#dfc49c"/><path id="Shape" d="m39 43.37v3.63c0 2-4 11-10 11s-9.73-8.4-10-11v-3.63c4 3.81 4 7.63 8 7.63h4c4 0 4-3.82 8-7.63z" fill="#dfc49c"/><path id="Shape" d="m29 58h-12c-2.3561542-1.9022852-4.0531404-4.4984993-4.85-7.42-.15-.37-.15-.58-.15-.58 1.8926714-1.8152616 4.3802095-2.8813494 7-3 .27 2.6 4 11 10 11z" fill="#009688"/><path id="Shape" d="m58 58h-17c2.3612908-1.8976343 4.0594618-4.4956609 4.85-7.42 2.34.6 3.52 1.51 8.59 4.21 1.7.91 3.56 1.33 3.56 3.21z" fill="#00695c"/><path id="Shape" d="m46 50s0 .21-.15.58c-.777218 2.8488713-2.4109188 5.3901837-4.68 7.28-.2.2 1 .14-12.17.14 4.3 0 7.9-4.81 9.44-8.84.3024547-.6849065.4915868-1.4144161.56-2.16 2.6197905.1186506 5.1073286 1.1847384 7 3z" fill="#00695c"/><path id="Shape" d="m42.09 32.36c0 3.83 1 7.11-3 10.94-4.22 4.2-4.15 7.7-8.09 7.7h-4c-3.93 0-3.85-3.45-8.06-7.66-4-3.83-3-7.11-3-10.94 0-3.52-1.27-5.66-1.09-14.36h28.33c.18 8.66-1.09 10.8-1.09 14.32z" fill="#dfc49c"/><path id="Shape" d="m39.09 32.36c0 3.83 1 7.11-3 10.94-4.22 4.2-4.15 7.7-8.09 7.7h-1c-3.93 0-3.85-3.45-8.06-7.66-4-3.83-3-7.11-3-10.94 0-3.52-1.27-5.66-1.09-14.36h25.33c.18 8.66-1.09 10.8-1.09 14.32z" fill="#ffe0b2"/><path id="Shape" d="m51 18h-44c0-2.7614237 2.23857625-5 5-5h34c2.7614237 0 5 2.2385763 5 5z" fill="#783e22"/><path id="Shape" d="m48 18h-41c0-2.7614237 2.23857625-5 5-5h31c2.7614237 0 5 2.2385763 5 5z" fill="#a0522d"/><path id="Shape" d="m45 13h-32c0-7.17970175 5.8202983-13 13-13h6c3.4478144 0 6.7544152 1.36963892 9.1923882 3.80761184 2.4379729 2.43797292 3.8076118 5.74457379 3.8076118 9.19238816z" fill="#6a1b9a"/><path id="Shape" d="m42 13h-29c0-7.17970175 5.8202983-13 13-13h3c3.4478144 0 6.7544152 1.36963892 9.1923882 3.80761184 2.4379729 2.43797292 3.8076118 5.74457379 3.8076118 9.19238816z" fill="#9d27b0"/><path id="Shape" d="m44 8h-7.61c-1.21-4.7-4.06-8-7.39-8h3c5.2481111 0 9.9814957 3.1555898 12 8z" fill="#fec108"/><path id="Shape" d="m41 8h-4.61c-1.21-4.7-4.06-8-7.39-8 5.2481111 0 9.9814957 3.1555898 12 8z" fill="#ffdc00"/><path id="Shape" d="m36.39 8h-14.78c2.81-10.82 12.08-10.49 14.78 0z" fill="#fec108"/><path id="Shape" d="m29 0c-3.88 0-6.41 4.21-7.39 8h-7.61c2.0185043-4.8444102 6.7518889-8 12-8z" fill="#ffdc00"/></g><path id="Shape" d="m56.64 55.26c-3.1-1.45-5.9-3.45-8.65-4.37-.0282121-.2243828-.1261494-.4342485-.28-.6-1.8262387-1.7738587-4.1828683-2.9012478-6.71-3.21v-2.3c3.3-3.28 3.29-6.32 3.16-9.25 1.9757785-1.3836619 3.3069639-3.508508 3.69-5.89.4-3.73 0-5.91-1.08-6.47-.4890903-.2525263-1.0606357-.2923175-1.58-.11 0-.91 0-1.92 0-3.06h6.81c.5522847 0 1-.4477153 1-1 0-3.3137085-2.6862915-6-6-6-.5255292-7.33895341-6.6422785-13.01879204-14-13h-6c-7.3384785.00746458-13.4258265 5.68026194-13.95 13-1.5999444-.0133333-3.13894445.6129167-4.275 1.7395833-1.13605556 1.1266667-1.77505556 2.6604167-1.775 4.2604167 0 .5522847.44771525 1 1 1h6.81v3.06c-.5193643-.1823175-1.0909097-.1425263-1.58.11-1.12.56-1.48 2.74-1.08 6.5.3992012 2.3673013 1.7276606 4.4769956 3.69 5.86-.13 2.93-.14 6 3.16 9.25v2.3c-2.5271317.3087522-4.8837613 1.4361413-6.71 3.21-.1538506.1657515-.2517879.3756172-.28.6-2.18.73-3.12 1.46-7.92 4-1.93 1-4 1.6-4.09 4.06 0 .5522847.44771525 1 1 1 116.28 1.54 11.41 0 58 0 .5522847 0 1-.4477153 1-1-.06-2.02-1.51-2.82-3.36-3.69zm-1.64 1.41c.8501258.3787131 1.6692956.8234053 2.45 1.33h-12.92c1.3149121-1.5202761 2.3325565-3.2740168 3-5.17 1.87.67 2.58 1.26 7.47 3.84zm-25 1.33c-5.11 0-8.71-7.53-9-10.07v-.93c2.29 3 3.1 6 7 6 5.82 0 6.7.54 9.61-3.94.42-.64.87-1.32 1.4-2v1c-.01 1.6-3.74 9.94-9.01 9.94zm15.79-33c.2776414 1.4580827.3046956 2.9528252.08 4.42-.2593762 1.330099-.8705912 2.5663417-1.77 3.58.06-2.12.7-3.86 1-7.38.1782316-.2578866.4145885-.4702653.69-.62zm-2.41-17h-5.24c-.6001713-2.1969015-1.7416474-4.20823731-3.32-5.85 3.5919821.55314776 6.7397506 2.70436808 8.56 5.85zm-7.38 0h-12c2.75-8.11 9.33-7.86 12 0zm-10.81-5.85c-1.5954836 1.62892027-2.7396385 3.64497623-3.32 5.85h-5.25c1.8223678-3.14811464 4.9743346-5.29969056 8.57-5.85zm-9.49 7.85h28.6c.361255.9657723.5965265 1.9740787.7 3h-30c.1034735-1.0259213.338745-2.0342277.7-3zm-2.7 5h34c1.8228823.0013597 3.4142798 1.2350012 3.87 3h-41.74c.45572018-1.7649988 2.0471177-2.9986403 3.87-3zm1.14 14.42c-.2065611-1.468015-.1829441-2.9592622.07-4.42.2863806.1589915.5326476.3813158.72.65.29 3.7.9 5.12 1 7.38-.9126864-1.0189532-1.5313886-2.2667271-1.79-3.61zm3.71 5.89c.29-6.2-1.23-5.77-1-15.31h26.34c.17 8.56-1.1 9.68-1.1 13.36 0 3.93 1 6.73-2.71 10.22-4.03 3.83-4.06 7.42-7.38 7.42h-4c-3.31 0-3.31-3.52-7.37-7.39-3.03-2.9-2.92-5.28-2.78-8.3zm-13.64 21.76c3-1.41 5.87-3.39 8.29-4.24.6674435 1.8959832 1.6850879 3.6497239 3 5.17h-12.95c.52048956-.3652912 1.07666548-.6768837 1.66-.93zm14.16.93c-2.0503045-1.7496022-3.5304073-4.0724929-4.25-6.67 1.4456484-1.2184014 3.2070741-2.0020278 5.08-2.26.9605922 3.454595 2.9023338 6.5565185 5.59 8.93zm22.46-8.93c1.8648417.2587224 3.6187666 1.0386297 5.06 2.25-.7142349 2.6051511-2.199154 4.9336158-4.26 6.68h-6.48c2.7238754-2.3588848 4.6982766-5.463005 5.68-8.93z" fill="#000"/></g></svg>