<svg height="512" viewBox="0 0 64 64" width="512" xmlns="http://www.w3.org/2000/svg"><g id="Fill_Outline" data-name="Fill Outline"><g id="color"><g><path d="m3 55h16v6h-16z" fill="#84d2f4"/><path d="m51 12h10v37h-10z" fill="#d0d8da"/><path d="m34 19h6v4h-6z" fill="#84d2f4"/><g><path d="m28 57h6v4h-6z" fill="#84d2f4"/><path d="m34 57h12v4h-12z" fill="#84d2f4"/><path d="m28 53h6v4h-6z" fill="#84d2f4"/><path d="m34 53h6v4h-6z" fill="#84d2f4"/><path d="m40 53h6v4h-6z" fill="#84d2f4"/><path d="m28 49h12v4h-12z" fill="#84d2f4"/><path d="m40 49h6v4h-6z" fill="#84d2f4"/><path d="m28 45h6v4h-6z" fill="#84d2f4"/><path d="m34 45h6v4h-6z" fill="#84d2f4"/><path d="m40 45h6v4h-6z" fill="#84d2f4"/><path d="m28 41h6v4h-6z" fill="#84d2f4"/><path d="m34 41h12v4h-12z" fill="#84d2f4"/><path d="m28 37h6v4h-6z" fill="#84d2f4"/><path d="m34 37h6v4h-6z" fill="#84d2f4"/><path d="m40 37h6v4h-6z" fill="#84d2f4"/><path d="m28 33h6v4h-6z" fill="#84d2f4"/><path d="m34 33h6v4h-6z" fill="#84d2f4"/><path d="m40 33h6v4h-6z" fill="#84d2f4"/><path d="m31 29h6v4h-6z" fill="#84d2f4"/><path d="m37 29h6v4h-6z" fill="#84d2f4"/><g fill="#57b7eb"><path d="m43 33h-6v-4z"/><path d="m37 33h-6v-4z"/><path d="m40 37h-6v-4z"/><path d="m46 37h-6v-4z"/><path d="m34 37h-6v-4z"/><path d="m40 41h-6v-4z"/><path d="m46 41h-6v-4z"/><path d="m34 41h-6v-4z"/><path d="m40 49h-6v-4z"/><path d="m46 49h-6v-4z"/><path d="m46 53h-6v-4z"/><path d="m34 49h-6v-4z"/><path d="m40 53h-6v-4z"/><path d="m46 45h-6v-4z"/><path d="m34 45h-6v-4z"/><path d="m40 57h-6v-4z"/><path d="m40 61h-6v-4z"/><path d="m46 57h-6v-4z"/><path d="m34 57h-6v-4z"/><path d="m34 61h-6v-4z"/><path d="m34 41h6v4h-6z"/><path d="m28 49h6v4h-6z"/></g></g><path d="m15 21h6a0 0 0 0 1 0 0v6a0 0 0 0 1 0 0h-3a3 3 0 0 1 -3-3v-3a0 0 0 0 1 0 0z" fill="#57b7eb" transform="matrix(-1 0 0 -1 36 48)"/><path d="m15 27h6v4h-6z" fill="#d0d8da" transform="matrix(-1 0 0 -1 36 58)"/><path d="m46 49h15v12h-15z" fill="#f9e109"/><path d="m3 39h16v4h-16z" fill="#84d2f4"/><path d="m3 43h16v4h-16z" fill="#84d2f4"/><path d="m3 47h16v4h-16z" fill="#84d2f4"/><path d="m3 51h16v4h-16z" fill="#84d2f4"/><path d="m19 49h9v12h-9z" fill="#93999a"/><path d="m57 8h4v4h-4z" fill="#d0d8da"/><path d="m55 38v-26h-4v37h10v-4.08a6.994 6.994 0 0 1 -6-6.92z" fill="#93999a"/><path d="m58 8h-1v4h4v-1a3 3 0 0 1 -3-3z" fill="#93999a"/><path d="m56 56a6 6 0 0 1 -6-6v-1h-4v12h15v-5z" fill="#fcbc04"/><path d="m20 25a3 3 0 0 1 -3-3v-1h-2v6h6v-2z" fill="#4891d3"/><path d="m19 29a2 2 0 0 1 -2-2h-2v4h6v-2z" fill="#93999a"/><path d="m40 23h-6v-4z" fill="#57b7eb"/><path d="m26 49-5 9v-9h-2v12h9v-12z" fill="#656b76"/><g fill="#57b7eb"><path d="m19 43h-16v-4h9z"/><path d="m19 47h-16v-4h9z"/><path d="m19 51h-16v-4h9z"/><path d="m19 55h-16v-4h9z"/><path d="m19 61h-16v-6h5z"/></g></g></g><g id="Outline_copy" data-name="Outline copy"><g fill="#323232"><path d="m52 52h-2a1 1 0 0 0 0 2h2a1 1 0 0 0 0-2z"/><circle cx="57" cy="53" r="1"/><circle cx="23" cy="53" r="1"/><path d="m61 32h-5a1 1 0 0 0 0 2h4v2h-4a1 1 0 0 0 0 2h4v2h-4a1 1 0 0 0 0 2h4v2h-13v-11a1 1 0 0 0 -1-1h-2v-6a1 1 0 0 0 -2 0v2h-11a1 1 0 0 0 -1 1v3h-2a1 1 0 0 0 -1 1v8a1 1 0 0 0 1 1h5v2h-5a1 1 0 0 0 -1 1v3h-3v-3a1 1 0 0 0 -2 0v4a1 1 0 0 0 1 1h4v11a1 1 0 0 0 2 0v-3h4v3a1 1 0 0 0 2 0v-3h7a1 1 0 0 0 0-2h-1v-2h4v7a1 1 0 0 0 2 0v-11h13v11a1 1 0 0 0 2 0v-28a1 1 0 0 0 -1-1zm-32 20v-2h10v2zm10-18v2h-4v-2zm6 6h-4v-2h4zm-10 0v-2h4v2zm0 2h10v2h-10zm0 4h4v2h-4zm6 0h4v2h-4zm4-10h-4v-2h4zm-3-4h-4v-2h4zm-10-2h4v2h-4zm-3 4h4v2h-4zm0 4h4v2h-4zm0 8h4v2h-4zm0 8h4v2h-4zm6 2v-2h4v2zm6-4v-2h4v2zm6-6h3v2h-3zm5 2v-2h3v2zm5 0v-2h3v2z"/><path d="m61 7h-4a1 1 0 0 0 -1 1v3h-5a1 1 0 0 0 -1 1v29a1 1 0 0 0 2 0v-28h8v3h-4a1 1 0 0 0 0 2h4v2h-4a1 1 0 0 0 0 2h4v2h-4a1 1 0 0 0 0 2h4v2h-4a1 1 0 0 0 0 2h5a1 1 0 0 0 1-1v-21a1 1 0 0 0 -1-1zm-3 4v-2h2v2z"/><path d="m52 56h-2a1 1 0 0 0 0 2h2a1 1 0 0 0 0-2z"/><circle cx="57" cy="57" r="1"/><circle cx="23" cy="57" r="1"/><path d="m22 24a4 4 0 0 0 -4-4h-2v-4a1 1 0 0 0 -.293-.707l-3.293-3.293 3-3h2.172l-2.293 2.293a1 1 0 0 0 .707 1.707h20v5h-2a1 1 0 0 0 -1 1v4a1 1 0 0 0 1 1h6a1 1 0 0 0 1-1v-4a1 1 0 0 0 -1-1h-2v-5h2a1 1 0 0 0 .707-1.707l-4-4a1 1 0 0 0 -.707-.293h-20v-2a1 1 0 0 0 -.553-.895l-4-2a1 1 0 0 0 -1.447.895v4h-3a1 1 0 0 0 -.707.293l-4 4a1 1 0 0 0 .707 1.707h7v25h-7a1 1 0 0 0 -1 1v22a1 1 0 0 0 2 0v-5h14v5a1 1 0 0 0 2 0v-22a1 1 0 0 0 -1-1h-3v-6h5a1 1 0 0 0 1-1zm17-2h-4v-2h4zm-21 0a2 2 0 0 1 2 2v2h-4v-4zm-6 10.586v-2.172l1.086 1.086zm2 .828v3.172l-1.586-1.586zm0-3.828-1.586-1.586 1.586-1.586zm0-8-1.586-1.586 1.586-1.586zm-.414 2.414-1.586 1.586v-3.172zm0-8-1.586 1.586v-3.172zm10.414-5.414-1.586-1.586h3.172zm-5.586.414 1.586-1.586 1.586 1.586zm8 0 1.586-1.586 1.586 1.586zm9.586-1.586 1.586 1.586h-3.172zm-4 1.172-1.586-1.586h3.172zm-20-5.968 2 1v1.382h-2zm-6.586 6.382 1.586-1.586 1.586 1.586zm7.172-2-1.586 1.586-1.586-1.586zm-8.586 39h14v2h-14zm14-2h-14v-2h14zm-14 8v-2h14v2zm14-12h-14v-2h14zm-6-4v-.586l.586.586zm8-8h-4v-2h4z"/></g></g></g></svg>