<svg height="512" viewBox="0 0 64 64" width="512" xmlns="http://www.w3.org/2000/svg"><g id="Fill_Outline" data-name="Fill Outline"><g id="Color"><path d="m3 18h56a0 0 0 0 1 0 0v38a0 0 0 0 1 0 0h-50a6 6 0 0 1 -6-6v-32a0 0 0 0 1 0 0z" fill="#48cae4"/><path d="m59 37v19h-50a6 6 0 0 1 -6-6v-32h10.49a27.993 27.993 0 0 0 26.51 19z" fill="#00b4d8"/><path d="m59 61h-22v-17l11-6 11 6z" fill="#e9f1f2"/><path d="m48 42-5.63 3.03a13 13 0 0 0 12.63 9.97h4v6h-22v-17l11-6 11 6v3.92z" fill="#d0d8da"/><path d="m61 47-13-7-13 7v-5l13-7 13 7z" fill="#ffea00"/><path d="m46 45h4v4h-4z" fill="#ade8f4"/><path d="m41 53h6v8h-6z" fill="#48cae4"/><path d="m51 53h4v4h-4z" fill="#ade8f4"/><g fill="#48cae4"><path d="m50 49h-4v-4z"/><path d="m55 57h-4v-4z"/><path d="m55 55v2h-4v-2.63a12.884 12.884 0 0 0 4 .63z"/></g><path d="m55 57-2.186-2.186a12.9 12.9 0 0 1 -1.814-.454v2.64z" fill="#00b4d8"/><path d="m41 53v8h6v-8zm5 6a4 4 0 0 1 -4-4v-1h3a1 1 0 0 1 1 1z" fill="#00b4d8"/><path d="m35 44v3l13-7 13 7v-3l-13-7z" fill="#ffd000"/><path d="m3 17v33a6 6 0 0 1 6-6v-33a6 6 0 0 0 -6 6z" fill="#ade8f4"/><path d="m9 41v3a6 6 0 0 0 -6 6v-33a5.947 5.947 0 0 1 2-4.46v24.46a4 4 0 0 0 4 4z" fill="#48cae4"/><path d="m20 27h12v12h-12z" fill="#e9f1f2"/><path d="m32 27v5l-6-3-4 2v1a5 5 0 0 0 5 5h5v2h-12v-12z" fill="#d0d8da"/><path d="m32 35.83v3.17h-12v-10.42a27.7 27.7 0 0 0 12 7.25z" fill="#d0d8da"/><path d="m22 32v-1l.427-.213a27.885 27.885 0 0 1 -2.427-2.207v10.42h12v-2h-5a5 5 0 0 1 -5-5z" fill="#93999a"/><path d="m26 24-8 4v4l8-4 8 4v-4z" fill="#ffea00"/><path d="m18 30v2l8-4 8 4v-2l-8-4z" fill="#ffd000"/><path d="m21.67 30.16-3.67 1.84v-4l1-.5a25.789 25.789 0 0 0 2.67 2.66z" fill="#ffd000"/><path d="m20.272 28.864-2.272 1.136v2l3.68-1.84c-.48-.418-.955-.846-1.408-1.296z" fill="#ffb700"/><path d="m24 35h4v4h-4z" fill="#ffea00"/><path d="m28 37v2h-4v-3a4.941 4.941 0 0 0 3 1z" fill="#ffd000"/><path d="m20.494 8.95 15.556 15.556 4.95-20.506zm13.342 7.685-5.471-5.471 7.211-1.74z" fill="#e9f1f2"/><path d="m40 15.125h24v4h-24z" fill="#ffea00" transform="matrix(.5 -.866 .866 .5 11.169 53.595)"/><path d="m47.732 28.517-4.732 4.196 1.268-6.196z" fill="#93999a"/><path d="m57 3h2a2 2 0 0 1 2 2 2 2 0 0 1 -2 2h-2a0 0 0 0 1 0 0v-4a0 0 0 0 1 0 0z" fill="#e9f1f2" transform="matrix(.5 -.866 .866 .5 25.169 53.595)"/><path d="m59.73 7.73-12 20.79-1.69-.98a38.2 38.2 0 0 0 3.85-5.5l8.66-14.99z" fill="#ffd000"/><path d="m47.73 28.52-4.73 4.19.49-2.4a35.149 35.149 0 0 0 2.55-2.77z" fill="#656b76"/><path d="m61 5a2.031 2.031 0 0 1 -.27 1l-1 1.73-1.18-.68.18-.32 1.42-2.46a1.211 1.211 0 0 0 .17-.77 1.992 1.992 0 0 1 .68 1.5z" fill="#d0d8da"/><path d="m36 17a10.992 10.992 0 0 1 -10.85-9.18l-4.66 1.13 15.56 15.56 1.85-7.68a10.828 10.828 0 0 1 -1.9.17z" fill="#d0d8da"/></g><g id="Outline_copy" fill="#323232" data-name="Outline copy"><path d="m13 19h16.13l6.213 6.213a1 1 0 0 0 .707.293.957.957 0 0 0 .27-.038 1 1 0 0 0 .7-.727l1.387-5.741h9.046l-4.053 7.017a1.026 1.026 0 0 0 -.113.3l-1.267 6.2a1 1 0 0 0 1.642.948l4.732-4.2a.99.99 0 0 0 .2-.248l5.787-10.017h3.619v17.923a1 1 0 0 0 2 0v-18.923a1 1 0 0 0 -1-1h-3.464l6.064-10.5a3 3 0 1 0 -5.2-3l-3.474 6.021a1 1 0 1 0 1.732 1l1.976-3.421 1.731 1-11 19.052-1.731-1 7.024-12.166a1 1 0 0 0 -1.732-1l-2.318 4.014h-9.718l3.082-12.765a1 1 0 0 0 -1.206-1.207l-7.951 1.919a1 1 0 0 0 .469 1.944l6.36-1.535-4.144 17.182-13.038-13.038 6.938-1.67a1 1 0 1 0 -.47-1.944l-8.671 2.092a1 1 0 0 0 -.472 1.679l7.343 7.343h-14.13a1 1 0 0 0 0 2zm46.5-14.866a1 1 0 0 1 .365 1.366l-.5.866-1.731-1 .5-.866a1 1 0 0 1 1.366-.366zm-14.531 23.943 1.061.612-1.449 1.285z"/><path d="m61.474 41.12-13-7a1 1 0 0 0 -.948 0l-13 7a1 1 0 0 0 -.526.88v5a1 1 0 0 0 1.474.88l.526-.28v7.4h-27a5 5 0 0 1 0-10 1 1 0 0 0 1-1v-33a1 1 0 0 0 -1-1 7.008 7.008 0 0 0 -7 7v13a1 1 0 0 0 2 0v-13a5.008 5.008 0 0 1 4-4.9v30.97a6.991 6.991 0 0 0 -4 2.034v-11.104a1 1 0 0 0 -2 0v16a7.008 7.008 0 0 0 7 7h27v4a1 1 0 0 0 1 1h22a1 1 0 0 0 1-1v-5a1 1 0 0 0 -2 0v4h-10v-7a1 1 0 0 0 -1-1h-6a1 1 0 0 0 -1 1v7h-2v-13.48l10-5.384 10 5.384v5.48a1 1 0 0 0 2 0v-4.4l.526.283a1 1 0 0 0 1.474-.883v-5a1 1 0 0 0 -.526-.88zm-19.474 12.88h4v6h-4zm18-8.674-11.526-6.206a1 1 0 0 0 -.948 0l-11.526 6.206v-2.726l12-6.461 12 6.461z"/><path d="m51 49v-4a1 1 0 0 0 -1-1h-4a1 1 0 0 0 -1 1v4a1 1 0 0 0 1 1h4a1 1 0 0 0 1-1zm-2-1h-2v-2h2z"/><path d="m51 58h4a1 1 0 0 0 1-1v-4a1 1 0 0 0 -1-1h-4a1 1 0 0 0 -1 1v4a1 1 0 0 0 1 1zm1-4h2v2h-2z"/><path d="m33 39v-6.382l.553.277a1 1 0 0 0 1.447-.895v-4a1 1 0 0 0 -.553-.895l-8-4a1 1 0 0 0 -.894 0l-8 4a1 1 0 0 0 -.553.895v4a1 1 0 0 0 1.447.9l.553-.282v6.382a1 1 0 0 0 1 1h12a1 1 0 0 0 1-1zm-14-10.382 7-3.5 7 3.5v1.764l-6.553-3.277a1 1 0 0 0 -.894 0l-6.553 3.277zm6 9.382v-2h2v2zm4 0v-3a1 1 0 0 0 -1-1h-4a1 1 0 0 0 -1 1v3h-2v-6.382l5-2.5 5 2.5v6.382z"/><path d="m12 41a1 1 0 0 0 1 1h2a1 1 0 0 0 0-2v-17a1 1 0 0 0 0-2h-2a1 1 0 0 0 0 2v17a1 1 0 0 0 -1 1z"/><path d="m31 46a1 1 0 0 0 1-1v-2a1 1 0 0 0 -2 0h-10a1 1 0 0 0 -2 0v2a1 1 0 0 0 2 0h10a1 1 0 0 0 1 1z"/><path d="m26 52a1 1 0 0 0 1-1v-3a1 1 0 0 0 -1.707-.707l-1.293 1.293-1.293-1.293a1 1 0 0 0 -1.707.707v3a1 1 0 0 0 2 0v-.586l.293.293a1 1 0 0 0 1.414 0l.293-.293v.586a1 1 0 0 0 1 1z"/><path d="m27.4 10.893a1 1 0 0 0 .255.978l5.471 5.471a1 1 0 0 0 .707.293.952.952 0 0 0 .27-.038 1 1 0 0 0 .7-.728l1.74-7.21a1 1 0 0 0 -1.206-1.207l-7.211 1.74a1 1 0 0 0 -.726.701zm6.818-.113-.939 3.887-2.949-2.949z"/></g></g></svg>