<svg height="512" viewBox="0 0 60 60" width="512" xmlns="http://www.w3.org/2000/svg"><g id="012---Build-Road" fill="none"><g id="Icons" transform="translate(1 1)"><path id="Shape" d="m58 8.75-43 29-.02-.01-14.98-8.99 40.09-26.75 3-2z" fill="#37474f"/><path id="Shape" d="m55 10.75-40.02 26.99-14.98-8.99 40.09-26.75z" fill="#607d8b"/><path id="Shape" d="m15 37.75v6l-15-9v-6z" fill="#ffdc00"/><path id="Shape" d="m58 8.75v6l-3 2.02-40 26.98v-6l40-26.98z" fill="#fec108"/><path id="Shape" d="m55 10.77v6l-40 26.98v-6z" fill="#ffdc00"/><path id="Shape" d="m58 45c0 7.1797017-5.8202983 13-13 13-.5013648.0005246-1.0022948-.0295312-1.5-.09-6.5433844-.7739825-11.472944-6.3209994-11.472944-12.91s4.9295596-12.1360175 11.472944-12.91c.4977052-.0604688.9986352-.0905246 1.5-.09 7.1797017 0 13 5.8202983 13 13z" fill="#0377bc"/><ellipse id="Oval" cx="43.5" cy="45" fill="#02a9f4" rx="11.5" ry="12.91"/><path id="Shape" d="m51 43h-4v-4c0-1.1045695-.8954305-2-2-2s-2 .8954305-2 2v4h-4c-1.1045695 0-2 .8954305-2 2s.8954305 2 2 2h4v4c0 1.1045695.8954305 2 2 2s2-.8954305 2-2v-4h4c1.1045695 0 2-.8954305 2-2s-.8954305-2-2-2z" fill="#fff"/></g><g id="Layer_10" fill="#000" transform="translate(0 -1)"><path id="Shape" d="m59.51 9.89-14.91-8.75c-.3242708-.20266981-.7357292-.20266981-1.06 0l-43.1 28.78c-.27557882.1862704-.44050114.4973739-.44.83v6c-.00417413.3490505.17396924.675015.47.86l15 9c.3266718.2068639.7433282.2068639 1.07 0l43-29c.2679907-.1907491.4250329-.5010943.42-.83v-6c.0191896-.3556336-.1522152-.6946343-.45-.89zm-57.51 22.63 13 7.8v3.68l-13-7.82zm15 7.76 41-27.65v3.59l-41 27.65zm27.13-37.1 13 7.63-41.13 27.75-13.13-7.85z"/><path id="Shape" d="m37.85 15.94c.43 0 .29 0 3.87-2.41.2965305-.2000687.4638005-.543137.4388011-.8999742-.0249994-.3568373-.2384702-.6732315-.56-.83-.3215298-.1567686-.7022707-.1300945-.9988011.0699742l-3.31 2.24c-.3655338.2456378-.5273388.7014949-.3984701 1.1226193.1288686.4211243.5180704.7083673.9584701.7073807z"/><path id="Shape" d="m17.14 29c-.1483028-.2203997-.3782067-.3727332-.6389823-.4233875-.2607756-.0506542-.5309895.0045341-.7510177.1533875l-3.31 2.24c-.323301.2576778-.4547038.6877391-.3306324 1.0821091.1240714.3943699.4780344.6717319.8906324.6978909.43 0 .29 0 3.87-2.41.4288825-.3058379.546977-.8919367.27-1.34z"/><path id="Shape" d="m46.13 10.34c.37 0 .44-.09 1.43-.76.4583963-.30927946.5792795-.93160366.27-1.39s-.9316037-.57927946-1.39-.27l-.87.59c-.3655338.24563779-.5273388.70149492-.3984701 1.12261928.1288686.42112432.5180704.70836732.9584701.70738072z"/><path id="Shape" d="m29.57 21.54c.42 0 .24 0 3.87-2.41.2203997-.1483028.3727332-.3782067.4233875-.6389823.0506542-.2607756-.0045341-.5309895-.1533875-.7510177-.1483028-.2203997-.3782067-.3727332-.6389823-.4233875-.2607756-.0506542-.5309895.0045341-.7510177.1533875l-3.32 2.25c-.3577534.2497108-.5123265.7025328-.3819337 1.1188748.1303929.416342.5156518.7000958.9519337.7011252z"/><path id="Shape" d="m21.28 27.15c.42 0 .25 0 3.88-2.42.4556349-.3203252.5653251-.9493651.245-1.405-.3203252-.4556349-.9493651-.5653251-1.405-.245l-3.32 2.24c-.3725906.2494578-.5335836.7164314-.3938876 1.1425041.139696.4260728.5459258.7070717.9938876.6874959z"/><path id="Shape" d="m46 33c-7.7319865 0-14 6.2680135-14 14s6.2680135 14 14 14 14-6.2680135 14-14c0-3.7130309-1.4749958-7.2739856-4.1005051-9.8994949s-6.186464-4.1005051-9.8994949-4.1005051zm0 26c-6.627417 0-12-5.372583-12-12s5.372583-12 12-12 12 5.372583 12 12c0 3.1825979-1.2642821 6.2348448-3.5147186 8.4852814-2.2504366 2.2504365-5.3026835 3.5147186-8.4852814 3.5147186z"/><path id="Shape" d="m52 44h-3v-3c0-1.6568542-1.3431458-3-3-3s-3 1.3431458-3 3v3h-3c-1.6568542 0-3 1.3431458-3 3s1.3431458 3 3 3h3v3c0 1.6568542 1.3431458 3 3 3s3-1.3431458 3-3v-3h3c1.6568542 0 3-1.3431458 3-3s-1.3431458-3-3-3zm0 4h-4c-.5522847 0-1 .4477153-1 1v4c0 .5522847-.4477153 1-1 1s-1-.4477153-1-1v-4c0-.5522847-.4477153-1-1-1h-4c-.5522847 0-1-.4477153-1-1s.4477153-1 1-1h4c.5522847 0 1-.4477153 1-1v-4c0-.5522847.4477153-1 1-1s1 .4477153 1 1v4c0 .5522847.4477153 1 1 1h4c.5522847 0 1 .4477153 1 1s-.4477153 1-1 1z"/></g></g></svg>