<svg height="512" viewBox="0 0 128 128" width="512" xmlns="http://www.w3.org/2000/svg"><g><g><circle cx="64" cy="64" fill="#42e893" r="43.125"/><circle cx="64" cy="64" fill="#e6f7fb" r="34.544"/><path d="m58.211 81.479a3.894 3.894 0 0 1 -2.694-1.079l-11.569-11.1a3.892 3.892 0 1 1 5.388-5.618l8.59 8.239 20.468-24.03a3.893 3.893 0 1 1 5.927 5.048l-23.147 27.171a3.893 3.893 0 0 1 -2.767 1.364c-.065.003-.13.005-.196.005z" fill="#42e893"/></g><g fill="#5b2300"><path d="m64 19.125a44.5 44.5 0 0 0 -26.866 8.928 1.75 1.75 0 0 0 2.1 2.8 41.349 41.349 0 1 1 -9.544 10.015 1.75 1.75 0 1 0 -2.9-1.959 44.878 44.878 0 1 0 37.21-19.784z"/><path d="m32.225 36.593a1.747 1.747 0 0 0 1.291-.568q.333-.363.675-.718a1.75 1.75 0 1 0 -2.522-2.428c-.247.258-.492.517-.733.781a1.75 1.75 0 0 0 1.289 2.933z"/><path d="m87.4 91.157a1.741 1.741 0 0 0 1.185-.462q.617-.567 1.207-1.163a1.75 1.75 0 0 0 -2.488-2.463q-.533.54-1.088 1.05a1.75 1.75 0 0 0 1.184 3.038z"/><path d="m92.185 84.055a1.75 1.75 0 0 0 2.417-.533 36.283 36.283 0 1 0 -11.316 11.229 1.749 1.749 0 0 0 -1.861-2.963 32.788 32.788 0 1 1 10.227-10.15 1.75 1.75 0 0 0 .533 2.417z"/><path d="m48.125 64.943 8.589 8.24a1.75 1.75 0 0 0 2.423-2.526l-8.589-8.239a5.642 5.642 0 1 0 -7.812 8.143l11.57 11.1a5.621 5.621 0 0 0 3.905 1.57c.1 0 .2 0 .284-.007a5.66 5.66 0 0 0 4.011-1.977l23.147-27.176a5.642 5.642 0 1 0 -8.591-7.317l-15.799 18.546a1.75 1.75 0 1 0 2.664 2.269l15.8-18.548a2.143 2.143 0 1 1 3.262 2.779l-23.147 27.176a2.153 2.153 0 0 1 -1.523.75h-.108a2.132 2.132 0 0 1 -1.482-.6l-11.57-11.1a2.139 2.139 0 0 1 -.063-3.027 2.147 2.147 0 0 1 3.029-.056z"/></g></g></svg>